<svg width="117" height="255" viewBox="0 0 117 255" fill="none" xmlns="http://www.w3.org/2000/svg">
<g id="BXC_MARCHIO 1" clip-path="url(#clip0_365_124)">
<g id="Livello 1">
<g id="Group">
<path id="Vector" d="M63.1301 148.414C59.5761 146.201 55.1126 146.191 51.5488 148.384L1.66434 179.056C0.502743 179.769 -0.204102 181.05 -0.204102 182.436V213.522H116V181.334L63.1301 148.419V148.414Z" fill="black"/>
<path id="Vector_2" d="M63.1301 126.797C59.5761 129.01 55.1126 129.025 51.5488 126.827L1.66434 96.1546C0.502743 95.4418 -0.204102 94.1609 -0.204102 92.7753V0H116V93.8818L63.1301 126.797Z" fill="black"/>
<path id="Vector_3" fill-rule="evenodd" clip-rule="evenodd" d="M30.4388 134.986H28.5456C28.4418 134.283 28.1353 133.745 27.6213 133.356C27.1122 132.973 26.4448 132.778 25.6194 132.778C24.5171 132.778 23.6669 133.157 23.0639 133.91C22.4608 134.662 22.1593 135.724 22.1593 137.099C22.1593 138.475 22.4658 139.572 23.0737 140.369C23.6817 141.162 24.522 141.56 25.5897 141.56C26.435 141.56 27.1319 141.311 27.6855 140.808C28.2342 140.304 28.5407 139.641 28.6049 138.814H30.4833C30.4338 140.13 29.9494 141.206 29.0251 142.049C28.1007 142.886 26.9293 143.305 25.5106 143.305C23.8646 143.305 22.5696 142.761 21.6205 141.67C20.6715 140.578 20.1969 139.083 20.1969 137.174C20.1969 135.265 20.6764 133.745 21.6353 132.669C22.5992 131.587 23.9338 131.049 25.6441 131.049C27.0331 131.049 28.1502 131.398 29.0004 132.1C29.8506 132.798 30.3251 133.765 30.4289 134.991M10.0045 131.353H12.2684L14.8536 135.559L17.4487 131.353H19.673L15.9707 137.015L19.7916 142.986H17.5129L14.819 138.57L12.1893 142.986H9.91063L13.6772 137.035L10.0045 131.358V131.353ZM0.227356 131.353H5.21481C6.42089 131.353 7.32546 131.597 7.91861 132.085C8.51671 132.574 8.81823 133.317 8.81823 134.298C8.81823 134.852 8.68477 135.34 8.41291 135.769C8.14599 136.192 7.77032 136.506 7.28097 136.706C7.94333 136.895 8.44751 137.229 8.78857 137.708C9.12964 138.186 9.30264 138.799 9.30264 139.542C9.30264 140.598 8.94181 141.436 8.22508 142.054C7.5034 142.672 6.52469 142.981 5.27907 142.981H0.237242V131.353H0.227356ZM2.0958 132.973V136.083H4.82431C5.54599 136.083 6.06994 135.948 6.40112 135.689C6.7323 135.425 6.90036 135.011 6.90036 134.448C6.90036 133.949 6.73724 133.581 6.40112 133.336C6.06994 133.092 5.56576 132.968 4.89352 132.968H2.0958V132.973ZM2.0958 137.663V141.266H5.11101C5.85245 141.266 6.40606 141.117 6.77679 140.813C7.14751 140.509 7.3304 140.05 7.3304 139.437C7.3304 138.824 7.14751 138.375 6.77184 138.091C6.40112 137.802 5.80796 137.658 5.00226 137.658H2.0958V137.663Z" fill="black"/>
<path id="Vector_4" fill-rule="evenodd" clip-rule="evenodd" d="M73.5267 229.526H71.6237C71.4803 228.838 71.1492 228.295 70.6351 227.911C70.121 227.527 69.4784 227.333 68.7024 227.333C67.5507 227.333 66.656 227.717 66.0184 228.489C65.3807 229.262 65.0644 230.348 65.0644 231.749C65.0644 233.149 65.3857 234.206 66.0282 234.994C66.6708 235.781 67.5507 236.175 68.6628 236.175C69.6069 236.175 70.3731 235.881 70.9613 235.293C71.5495 234.704 71.8609 233.917 71.8955 232.925H68.737V231.32H73.6651V237.595H72.3948L72.0735 236.125C71.6434 236.708 71.1244 237.157 70.5165 237.451C69.9085 237.75 69.2165 237.899 68.4503 237.899C66.8587 237.899 65.5685 237.341 64.5799 236.215C63.5914 235.093 63.0971 233.613 63.0971 231.789C63.0971 229.965 63.5963 228.439 64.5948 227.328C65.5933 226.216 66.9229 225.663 68.5887 225.663C69.9777 225.663 71.1047 226.002 71.9796 226.68C72.8495 227.358 73.3735 228.31 73.5366 229.521M51.8914 225.962H53.9279L59.3009 234.66V225.962H61.1545V237.59H59.1328L53.7301 228.893V237.59H51.8914V225.962ZM47.4674 225.962H49.3952V237.59H47.4674V225.962ZM35.9404 225.962H40.394C42.0845 225.962 43.3549 226.446 44.205 227.413C45.0503 228.38 45.4754 229.82 45.4754 231.739C45.4754 233.658 45.0107 235.063 44.0815 236.075C43.1522 237.087 41.8126 237.59 40.0727 237.59H35.9404V225.962ZM37.8286 227.612V235.876H40.1864C41.3282 235.876 42.1735 235.532 42.7123 234.839C43.2511 234.151 43.5229 233.085 43.5229 231.634C43.5229 230.318 43.2511 229.322 42.7073 228.634C42.1636 227.951 41.3678 227.607 40.3199 227.607H37.8286V227.612ZM27.053 225.962H28.9708V235.831H34.6651V237.59H27.053V225.962ZM22.629 225.962H24.5568V237.59H22.629V225.962ZM11.0822 225.962H13.01V233.194C13.01 234.196 13.2225 234.944 13.6526 235.422C14.0826 235.901 14.745 236.14 15.6396 236.14C16.5343 236.14 17.2066 235.901 17.6366 235.417C18.0666 234.934 18.2841 234.196 18.2841 233.194V225.962H20.2119V233.304C20.2119 234.779 19.8165 235.916 19.0206 236.718C18.2248 237.516 17.0978 237.914 15.6396 237.914C14.1815 237.914 13.005 237.526 12.2389 236.753C11.4678 235.975 11.0822 234.829 11.0822 233.304V225.962ZM0.242309 225.962H5.22976C6.43584 225.962 7.34041 226.206 7.93356 226.695C8.53166 227.183 8.83318 227.926 8.83318 228.908C8.83318 229.461 8.69972 229.95 8.42786 230.378C8.16094 230.807 7.78527 231.116 7.29592 231.315C7.95828 231.505 8.46246 231.839 8.80352 232.317C9.14459 232.796 9.31759 233.409 9.31759 234.151C9.31759 235.208 8.95676 236.045 8.24003 236.663C7.51835 237.281 6.53965 237.59 5.29402 237.59H0.237366V225.962H0.242309ZM2.11075 227.582V230.692H4.83927C5.56094 230.692 6.08489 230.558 6.41607 230.298C6.74725 230.034 6.91531 229.621 6.91531 229.057C6.91531 228.559 6.75219 228.195 6.41607 227.946C6.08489 227.702 5.58071 227.582 4.90847 227.582H2.11075ZM2.11075 232.272V235.876H5.12596C5.8674 235.876 6.42102 235.726 6.79174 235.422C7.16246 235.118 7.34535 234.66 7.34535 234.047C7.34535 233.434 7.16246 232.99 6.7868 232.701C6.41607 232.412 5.82292 232.272 5.01721 232.272H2.11075Z" fill="black"/>
<path id="Vector_5" fill-rule="evenodd" clip-rule="evenodd" d="M5.00234 248.371L6.94493 250.759C7.09322 250.484 7.21185 250.19 7.29588 249.871C7.37991 249.552 7.43428 249.208 7.46394 248.825H9.11489C9.08029 249.433 8.97154 250.011 8.78865 250.549C8.61071 251.087 8.35367 251.596 8.01755 252.069L10.1579 254.676H7.90881L6.9301 253.46C6.4704 253.968 5.94645 254.342 5.35824 254.596C4.77497 254.846 4.11755 254.97 3.39094 254.97C2.40729 254.97 1.59664 254.646 0.958996 253.998C0.321354 253.35 6.10352e-05 252.533 6.10352e-05 251.541C6.10352e-05 250.823 0.19778 250.2 0.593217 249.662C0.988654 249.124 1.65101 248.59 2.58029 248.057C2.13048 247.519 1.81907 247.06 1.64607 246.681C1.47306 246.303 1.38409 245.914 1.38409 245.52C1.38409 244.733 1.64607 244.09 2.17002 243.591C2.69892 243.098 3.38599 242.849 4.23618 242.849C5.08637 242.849 5.77839 243.073 6.27268 243.531C6.77192 243.985 7.02401 244.603 7.02401 245.386C7.02401 245.979 6.85595 246.522 6.52972 247.01C6.20348 247.494 5.69436 247.947 5.00234 248.361M5.95139 252.229L3.51451 249.218C2.92135 249.567 2.48637 249.916 2.21945 250.265C1.94759 250.614 1.81413 251.003 1.81413 251.431C1.81413 251.99 1.99208 252.448 2.34797 252.807C2.70386 253.166 3.16356 253.345 3.72706 253.345C4.12744 253.345 4.51793 253.251 4.89854 253.056C5.27915 252.862 5.6301 252.588 5.95139 252.229ZM4.09284 247.3C4.55253 247.015 4.8936 246.721 5.11109 246.422C5.32858 246.123 5.43732 245.799 5.43732 245.445C5.43732 245.092 5.33352 244.787 5.12592 244.568C4.91831 244.354 4.63656 244.244 4.28067 244.244C3.89017 244.244 3.58371 244.349 3.36128 244.553C3.14379 244.758 3.03504 245.037 3.03504 245.391C3.03504 245.665 3.11413 245.944 3.2723 246.238C3.43048 246.527 3.70729 246.881 4.09284 247.3Z" fill="black"/>
<path id="Vector_6" fill-rule="evenodd" clip-rule="evenodd" d="M116.738 246.612H114.835C114.692 245.924 114.361 245.381 113.847 244.997C113.327 244.613 112.69 244.419 111.914 244.419C110.762 244.419 109.867 244.802 109.23 245.575C108.592 246.347 108.276 247.434 108.276 248.835C108.276 250.235 108.597 251.292 109.24 252.079C109.882 252.867 110.762 253.26 111.874 253.26C112.818 253.26 113.585 252.966 114.173 252.378C114.761 251.79 115.072 251.003 115.107 250.011H111.948V248.406H116.877V254.681H115.606L115.285 253.211C114.86 253.794 114.341 254.237 113.728 254.536C113.12 254.835 112.428 254.985 111.662 254.985C110.07 254.985 108.78 254.427 107.791 253.3C106.803 252.179 106.308 250.699 106.308 248.874C106.308 247.05 106.808 245.525 107.806 244.414C108.805 243.302 110.134 242.749 111.8 242.749C113.189 242.749 114.316 243.088 115.191 243.766C116.061 244.443 116.585 245.39 116.748 246.607M95.1028 243.048H97.1393L102.512 251.745V243.048H104.366V254.676H102.344L96.9416 245.979V254.676H95.1028V243.048ZM90.6788 243.048H92.6066V254.676H90.6788V243.048ZM80.2344 243.048H89.2454V244.753H85.7062V254.676H83.7982V244.753H80.2344V243.048ZM73.7343 243.048H75.6522V252.917H81.3465V254.676H73.7343V243.048ZM62.237 243.048H64.1648V250.28C64.1648 251.287 64.3773 252.029 64.8074 252.508C65.2374 252.986 65.8997 253.226 66.7944 253.226C67.6891 253.226 68.3613 252.986 68.7914 252.503C69.2214 252.019 69.4389 251.277 69.4389 250.28V243.048H71.3667V250.39C71.3667 251.865 70.9712 253.001 70.1754 253.799C69.3796 254.601 68.2526 255 66.7944 255C65.3363 255 64.1598 254.611 63.3937 253.839C62.6226 253.061 62.237 251.915 62.237 250.39V243.048ZM60.0423 246.442L58.2184 246.452C58.1739 245.794 57.9317 245.281 57.4769 244.907C57.0271 244.533 56.4191 244.344 55.6629 244.344C55.0351 244.344 54.526 244.493 54.1306 244.787C53.7351 245.081 53.5325 245.445 53.5325 245.884C53.5325 246.323 53.7055 246.691 54.0564 246.97C54.4074 247.255 55.1389 247.539 56.256 247.828C57.9515 248.256 59.0587 248.73 59.5826 249.233C60.1017 249.742 60.3587 250.444 60.3587 251.352C60.3587 252.443 59.9534 253.325 59.1378 253.988C58.3271 254.656 57.2446 254.99 55.8853 254.99C54.4568 254.99 53.3446 254.641 52.5488 253.948C51.753 253.256 51.3229 252.254 51.2686 250.948H53.1321C53.1864 251.7 53.4682 252.284 53.9724 252.702C54.4815 253.116 55.1735 253.325 56.0435 253.325C56.7009 253.325 57.2397 253.166 57.6598 252.842C58.08 252.523 58.2925 252.129 58.2925 251.661C58.2925 251.476 58.2332 251.267 58.1146 251.033C57.9959 250.798 57.8477 250.594 57.6648 250.429C57.3633 250.15 56.691 249.881 55.6431 249.622C55.4207 249.562 55.2526 249.522 55.134 249.497C53.8439 249.154 52.9344 248.72 52.4005 248.192C51.8667 247.663 51.5998 246.946 51.5998 246.033C51.5998 245.062 51.9902 244.279 52.7712 243.666C53.5522 243.058 54.5902 242.754 55.8804 242.754C57.1705 242.754 58.1442 243.088 58.8906 243.756C59.642 244.424 60.0176 245.321 60.0275 246.452L60.0423 246.442ZM40.0975 243.048H42.134L47.507 251.745V243.048H49.3606V254.676H47.3389L41.9363 245.979V254.676H40.0975V243.048ZM32.6286 242.744C34.3439 242.744 35.6933 243.292 36.6769 244.384C37.6606 245.475 38.1549 246.97 38.1549 248.869C38.1549 250.768 37.6606 252.269 36.6769 253.36C35.6883 254.452 34.3389 255 32.6286 255C30.9184 255 29.5591 254.457 28.5754 253.365C27.5868 252.274 27.0925 250.778 27.0925 248.869C27.0925 246.961 27.5868 245.47 28.5754 244.379C29.5591 243.287 30.9134 242.744 32.6286 242.744ZM32.6286 244.424C31.5066 244.424 30.6317 244.812 29.999 245.595C29.3663 246.377 29.0499 247.469 29.0499 248.864C29.0499 250.26 29.3663 251.352 29.999 252.134C30.6317 252.917 31.5066 253.31 32.6286 253.31C33.7507 253.31 34.6207 252.917 35.2534 252.134C35.8861 251.352 36.2024 250.26 36.2024 248.864C36.2024 247.469 35.8861 246.372 35.2583 245.595C34.6256 244.812 33.7556 244.424 32.6286 244.424ZM25.6838 246.681H23.7906C23.6868 245.979 23.3804 245.44 22.8663 245.052C22.3572 244.668 21.6899 244.473 20.8644 244.473C19.7621 244.473 18.9119 244.852 18.3089 245.605C17.7058 246.357 17.4043 247.419 17.4043 248.795C17.4043 250.17 17.7108 251.267 18.3188 252.064C18.9267 252.862 19.7671 253.256 20.8347 253.256C21.68 253.256 22.3819 253.006 22.9305 252.503C23.4792 251.999 23.7906 251.337 23.8499 250.509H25.7283C25.6788 251.825 25.1944 252.902 24.2701 253.744C23.3458 254.581 22.1743 255 20.7556 255C19.1096 255 17.8146 254.457 16.8655 253.365C15.9165 252.274 15.442 250.778 15.442 248.869C15.442 246.961 15.9214 245.44 16.8804 244.364C17.8442 243.282 19.1788 242.744 20.8891 242.744C22.2781 242.744 23.3952 243.093 24.2454 243.796C25.0956 244.493 25.5701 245.46 25.6739 246.686L25.6838 246.681Z" fill="black"/>
</g>
</g>
</g>
<defs>
<clipPath id="clip0_365_124">
<rect width="117" height="255" fill="white"/>
</clipPath>
</defs>
</svg>
