<svg width="41" height="82" viewBox="0 0 41 82" fill="none" xmlns="http://www.w3.org/2000/svg">
<path d="M22.2696 56.5672C21.02 55.7238 19.4505 55.72 18.1974 56.5558L0.656982 68.2466C0.248541 68.5182 0 69.0064 0 69.5345V81.3829H40.8598V69.1147L22.2696 56.5691V56.5672Z" fill="black"/>
<path d="M22.2696 48.3283C21.02 49.1717 19.4505 49.1774 18.1974 48.3397L0.656982 36.6489C0.248541 36.3773 0 35.889 0 35.3609V0H40.8598V35.7827L22.2696 48.3283Z" fill="black"/>
<path fill-rule="evenodd" clip-rule="evenodd" d="M10.7746 51.4495H10.1089C10.0724 51.1816 9.96464 50.9765 9.78388 50.8283C9.60486 50.682 9.37022 50.6079 9.07997 50.6079C8.69238 50.6079 8.39344 50.7523 8.1814 51.0392C7.96935 51.326 7.86333 51.7306 7.86333 52.255C7.86333 52.7793 7.97109 53.1972 8.18487 53.5012C8.39865 53.8032 8.69412 53.9552 9.06954 53.9552C9.36675 53.9552 9.61181 53.8602 9.80647 53.6683C9.9994 53.4765 10.1072 53.2238 10.1297 52.9085H10.7902C10.7728 53.41 10.6025 53.8203 10.2775 54.1414C9.95247 54.4605 9.54055 54.6201 9.04173 54.6201C8.46296 54.6201 8.00759 54.413 7.67389 53.997C7.34018 53.5809 7.17333 53.011 7.17333 52.2835C7.17333 51.5559 7.34192 50.9765 7.6791 50.5661C8.01802 50.1539 8.48729 49.9487 9.08866 49.9487C9.57705 49.9487 9.96985 50.0817 10.2688 50.3496C10.5677 50.6155 10.7346 50.9841 10.7711 51.4514M3.58947 50.0646H4.3855L5.2945 51.668L6.20697 50.0646H6.9891L5.6873 52.2227L7.03081 54.4985H6.22957L5.28233 52.8154L4.35769 54.4985H3.55645L4.88084 52.2303L3.58947 50.0665V50.0646ZM0.151611 50.0646H1.9053C2.32939 50.0646 2.64745 50.1577 2.85602 50.3439C3.06632 50.53 3.17234 50.8131 3.17234 51.1873C3.17234 51.3982 3.12541 51.5844 3.02982 51.7477C2.93597 51.9092 2.80387 52.0289 2.63181 52.1049C2.86471 52.1771 3.04199 52.3044 3.16191 52.4867C3.28184 52.6691 3.34267 52.9028 3.34267 53.1858C3.34267 53.5885 3.21579 53.9077 2.96377 54.1433C2.71002 54.3788 2.36589 54.4966 1.9279 54.4966H0.155087V50.0646H0.151611ZM0.808594 50.682V51.8674H1.768C2.02175 51.8674 2.20598 51.8161 2.32243 51.7173C2.43888 51.6167 2.49798 51.459 2.49798 51.2443C2.49798 51.0544 2.44062 50.9138 2.32243 50.8207C2.20598 50.7276 2.0287 50.6801 1.79233 50.6801H0.808594V50.682ZM0.808594 52.4696V53.8431H1.8688C2.12951 53.8431 2.32417 53.7861 2.45453 53.6702C2.58488 53.5544 2.64919 53.3796 2.64919 53.1459C2.64919 52.9123 2.58488 52.7413 2.45279 52.633C2.32243 52.5228 2.11387 52.4677 1.83057 52.4677H0.808594V52.4696Z" fill="black"/>
</svg>
