<?xml version="1.0" encoding="utf-8"?>
<!-- Generator: Adobe Illustrator 28.0.0, SVG Export Plug-In . SVG Version: 6.00 Build 0)  -->
<svg version="1.1" id="Livello_1" xmlns="http://www.w3.org/2000/svg" xmlns:xlink="http://www.w3.org/1999/xlink" x="0px" y="0px"
	 viewBox="0 0 100 125" style="enable-background:new 0 0 100 125;" xml:space="preserve">
<g>
	<path d="M86.3,66.1c-0.4,0.4-33.3,38.6-33.4,38.7l0,0c-0.8,0.4-1.6,0.7-2.6,0.7c-2.9,0-5.2-2.3-5.2-5.2c0-1.9,1-3.5,2.4-4.4l0,0
		l28.9-33.4L47.6,29.1l0,0c-1.5-0.9-2.4-2.5-2.4-4.4c0-2.9,2.3-5.2,5.2-5.2c0.9,0,1.8,0.3,2.6,0.7l0,0c0,0,32.9,38.2,33.4,38.7
		C88.3,60.9,88.3,64.1,86.3,66.1z"/>
	<path d="M53.3,66.1c-0.4,0.4-33.3,38.6-33.4,38.7l0,0c-0.8,0.4-1.6,0.7-2.6,0.7c-2.9,0-5.2-2.3-5.2-5.2c0-1.9,1-3.5,2.4-4.4l0,0
		l28.9-33.4L14.6,29.1l0,0c-1.5-0.9-2.4-2.5-2.4-4.4c0-2.9,2.3-5.2,5.2-5.2c0.9,0,1.8,0.3,2.6,0.7l0,0c0,0,32.9,38.2,33.4,38.7
		C55.3,60.9,55.3,64.1,53.3,66.1z"/>
</g>
</svg>
